<svg xmlns="http://www.w3.org/2000/svg" viewBox="0 0 475.42 148.88"><defs><style>.cls-1{fill:#0775bb;}</style></defs><title>aw2eAsset 1</title><g id="Layer_2" data-name="Layer 2"><g id="Layer_1-2" data-name="Layer 1"><path class="cls-1" d="M210.33,148.85l-44.92,0a.31.31,0,0,1-.31-.31V46.08a.31.31,0,0,0-.31-.31L.34,45.79A.31.31,0,0,1,0,45.48l0-45A.31.31,0,0,1,.31.14L211.47,0a.3.3,0,0,1,.26.14l29.95,45.21a.3.3,0,0,0,.26.14l6.27,0a.31.31,0,0,0,.25-.13L280,.13a.31.31,0,0,1,.25-.13L475.11.15a.31.31,0,0,1,.31.31l0,45a.31.31,0,0,1-.31.31H325.94a.31.31,0,0,0-.31.31V148.56a.31.31,0,0,1-.31.31H280.4a.31.31,0,0,1-.31-.31l0-49.21a.31.31,0,0,0-.57-.17L253.34,137.4a.31.31,0,0,1-.25.13H237.54a.3.3,0,0,1-.26-.14L211.19,98.52a.31.31,0,0,0-.57.17l0,49.85a.31.31,0,0,1-.31.31Z"/><path class="cls-1" d="M61.06,92.45l0,10.23a.56.56,0,0,0,.57.57l91.44.07a.56.56,0,0,1,.57.57V148.3a.58.58,0,0,1-.57.57H15.84a.58.58,0,0,1-.57-.57V57.66a.58.58,0,0,1,.57-.57H130.1a.58.58,0,0,1,.57.57V91.34a.58.58,0,0,1-.57.57l-68.47,0a.58.58,0,0,0-.57.57Z"/><path class="cls-1" d="M428.85,148.32a.55.55,0,0,1-.55.55H383.8a.55.55,0,0,1-.55-.55V57.66a.55.55,0,0,1,.55-.55h44.5a.55.55,0,0,1,.55.55v90.66Z"/></g></g></svg>